<svg version="1.1" xmlns="http://www.w3.org/2000/svg" style="display: block;" viewBox="1150 0 900 400" preserveAspectRatio="xMidYMid meet">
<defs>
	<radialGradient id="Gradient1" cx="50%" cy="40%" r="60%">
		<stop offset="0%" stop-opacity="1" stop-color="#ff8a7a"/>
		<stop offset="60%" stop-opacity="1" stop-color="#e0523e"/>
		<stop offset="100%" stop-opacity="1" stop-color="#b43c2f"/>
	</radialGradient>
</defs>
<path transform="translate(0,0)" fill="rgb(0,0,0)" d="M 131.937 769.986 L 186.677 653.533 C 190.985 644.332 210.244 599.526 216.045 595.347 L 217.507 595.651 C 220.756 605.277 222.404 626.478 223.622 637.648 L 234.212 735.071 C 235.616 747.982 236.59 789.716 248.65 797.263 C 251.212 798.867 266.609 800.783 271.568 802.796 L 272.073 804.541 C 267.716 807.277 218.864 805.747 213.88 802.133 C 214.258 798.623 216.475 797.667 216.312 795.236 C 215.204 778.8 213.369 760.722 211.884 744.413 L 206.52 685.961 C 205.507 675.034 204.564 660.318 202.493 649.989 C 194.496 666.992 133.114 800.508 127.79 805.226 L 126.147 805.27 C 112.413 791.638 61.4864 675.958 49.4927 651.436 C 46.9414 696.903 40.829 742.46 38.3744 787.951 C 37.5055 804.055 51.0005 797.722 57.4729 804.063 C 55.5125 806.395 6.63965 806.062 0 805.836 L 0 801.805 C 5.58426 801.491 12.0587 801.855 16.1498 797.377 C 26.4548 786.096 35.3159 605.151 43.4901 595.75 L 45.3942 595.671 C 50.912 601.516 65.2922 633.098 69.846 642.521 L 111.016 727.393 C 116.975 739.629 125.442 758.496 131.937 769.986 z"/>
<path transform="translate(0,0)" fill="rgb(0,0,0)" d="M 1944.29 800.606 C 1943.33 792.428 1943.21 764.684 1946.74 758.572 L 1948.21 758.777 C 1952.16 764.356 1950.24 776.122 1956.88 785.048 C 1969.11 801.468 1998.95 803.114 2014.48 791.901 C 2022.37 786.167 2027.63 777.503 2029.07 767.854 C 2035.21 729.105 1979.81 707.841 1961.5 679.427 C 1948.92 662.507 1945.74 639.033 1956.63 620.338 C 1975.62 587.726 2014.73 594.825 2045 600.256 C 2044.44 612.66 2044.34 630.182 2042.05 641.747 C 2037.11 629.778 2038.03 614.761 2022.42 608.925 C 2013.29 605.542 1994.99 603.762 1986.34 608.871 C 1953.72 628.353 1970.96 658.069 1994.24 676.015 C 2018.47 694.699 2035.26 706.98 2048 735.276 L 2048 767.656 C 2046.71 770.885 2045.29 774.065 2043.77 777.19 C 2025.54 813.723 1977.34 817.148 1944.29 800.606 z"/>
<path transform="translate(0,0)" fill="rgb(0,0,0)" d="M 233.167 989 C 224.774 984.656 216.121 979.551 213.148 969.824 C 208.066 953.197 215.432 936.159 232.74 931.175 C 241.199 928.71 250.294 929.749 257.979 934.061 C 264.508 937.654 269.295 943.75 271.238 950.946 C 276.138 968.923 265.996 982.006 250.097 989 L 233.167 989 z"/>
<path transform="translate(0,0)" fill="rgb(255,255,255)" d="M 239.979 934.132 C 245.326 934.385 248.864 934.829 253.65 937.466 C 259.544 940.663 263.846 946.164 265.528 952.654 C 267.345 959.407 266.331 966.609 262.721 972.598 C 257.99 980.291 252.481 982.879 244.113 984.958 C 238.909 984.75 234.204 983.907 229.673 981.247 C 223.704 977.774 219.425 972 217.839 965.278 C 216.252 958.683 217.415 951.727 221.061 946.007 C 225.723 938.761 231.858 935.785 239.979 934.132 z"/>
<path transform="translate(0,0)" fill="rgb(0,0,0)" d="M 1020.18 989 C 1002.98 980.608 991.391 965.764 1001.05 946.218 C 1004.64 939.102 1010.97 933.746 1018.58 931.372 C 1026.9 928.703 1035.94 929.492 1043.67 933.563 C 1058.09 941.311 1062.88 959.595 1055.17 974.137 C 1051.41 981.222 1043.99 985.558 1036.96 989 L 1020.18 989 z"/>
<path transform="translate(0,0)" fill="rgb(255,255,255)" d="M 1025.31 934.235 C 1037.33 933.808 1048.02 939.821 1051.84 951.615 C 1053.96 958.265 1053.28 965.496 1049.95 971.633 C 1045.6 979.63 1039.8 982.382 1031.58 984.748 C 1025.74 984.771 1022.11 984.484 1016.86 981.628 C 1011.01 978.477 1006.68 973.1 1004.85 966.714 C 1002.94 960.248 1003.67 953.288 1006.89 947.362 C 1011.23 939.529 1017.16 936.654 1025.31 934.235 z"/>
<path transform="translate(0,0)" fill="rgb(0,0,0)" d="M 1665.01 930.48 C 1678.34 930.352 1700.22 928.468 1708.92 939.205 C 1725.65 959.871 1713.58 982.723 1690.49 989 L 1665 989 L 1665.01 930.48 z"/>
<path transform="translate(0,0)" fill="rgb(255,255,255)" d="M 1670.8 935.486 C 1682.4 935.241 1692.86 934.058 1702.72 941.559 C 1715.73 951.464 1712.23 966.656 1703.08 977.874 C 1693.02 985.385 1682.85 984.149 1670.66 984.125 C 1670.49 967.912 1670.53 951.698 1670.8 935.486 z"/>
<path transform="translate(0,0)" fill="rgb(0,0,0)" d="M 1776.36 930.412 C 1787.01 930.4 1799.12 929.336 1807.48 937.138 C 1815.71 944.813 1808.07 954.673 1800.89 959.363 C 1806.67 967.449 1815.61 980.191 1820.02 989 L 1815.19 989 L 1781.38 989 L 1776.86 989 C 1775.37 972.543 1776.17 947.357 1776.36 930.412 z"/>
<path transform="translate(0,0)" fill="rgb(255,255,255)" d="M 1782.1 960.331 C 1786.29 960.782 1791.33 961.188 1795.42 961.925 C 1802.63 969.103 1808.41 980.909 1815.19 989 L 1781.38 989 C 1782.3 980.271 1782.06 969.274 1782.1 960.331 z"/>
<path transform="translate(0,0)" fill="rgb(255,255,255)" d="M 1782.02 934.914 C 1795 934.626 1809.81 935.347 1801.87 953.087 C 1794.81 956.708 1789.88 956.265 1782.01 956.475 L 1782.02 934.914 z"/>
<path transform="translate(0,0)" fill="rgb(0,0,0)" d="M 1118.39 930.447 C 1126.82 930.398 1143.56 929.212 1148.54 935.616 C 1155.84 944.983 1151.28 954.039 1142.69 959.211 C 1148.93 967.823 1157.29 979.577 1161.91 989 L 1157.25 989 L 1123.96 989 L 1118.64 989 C 1117.57 971.353 1118.23 948.462 1118.39 930.447 z"/>
<path transform="translate(0,0)" fill="rgb(255,255,255)" d="M 1124.02 960.563 C 1146.47 961.291 1144.14 973.51 1157.25 989 L 1123.96 989 L 1124.02 960.563 z"/>
<path transform="translate(0,0)" fill="rgb(255,255,255)" d="M 1124.02 934.94 C 1136.72 934.648 1152.42 935.472 1143.67 953.072 C 1136.88 956.786 1131.64 956.288 1123.98 956.431 L 1124.02 934.94 z"/>
<path transform="translate(0,0)" fill="rgb(0,0,0)" d="M 442.184 930.476 C 452.675 930.424 464.657 929.295 472.86 936.982 C 481.206 944.803 473.634 954.557 466.406 959.375 C 473.012 968.048 480.554 979.375 485.774 989 L 480.84 989 L 447.056 989 L 442.717 989 C 441.15 975.11 442.073 945.74 442.184 930.476 z"/>
<path transform="translate(0,0)" fill="rgb(255,255,255)" d="M 447.19 960.479 C 451.778 960.789 456.721 960.975 461.196 961.899 C 469.282 970.54 473.962 980.886 480.84 989 L 447.056 989 L 447.19 960.479 z"/>
<path transform="translate(0,0)" fill="rgb(255,255,255)" d="M 447.151 934.949 C 459.326 934.71 478.12 935.989 466.703 953.535 C 460.439 956.738 454.06 956.33 447.116 956.462 L 447.151 934.949 z"/>
<path transform="translate(0,0)" fill="rgb(0,0,0)" d="M 117.776 930.446 C 124.778 930.438 131.635 929.941 138.407 931.823 C 155.483 936.569 156.136 950.366 141.649 959.282 C 148.613 968.657 155.421 978.675 160.896 989 L 156.134 989 L 122.426 989 L 117.967 989 C 117.575 969.484 117.511 949.964 117.776 930.446 z"/>
<path transform="translate(0,0)" fill="rgb(255,255,255)" d="M 122.749 960.585 C 144.869 961.107 143.393 973.366 156.134 989 L 122.426 989 C 122.597 979.529 122.705 970.057 122.749 960.585 z"/>
<path transform="translate(0,0)" fill="rgb(255,255,255)" d="M 122.742 934.953 C 135.361 934.653 151.713 935.587 142.703 953.25 C 135.772 956.699 130.359 956.275 122.679 956.489 L 122.742 934.953 z"/>
<path transform="translate(0,0)" fill="rgb(0,0,0)" d="M 530.995 989 C 535.472 974.479 550.419 942.23 556.958 927.584 C 564.104 943.907 577.83 972.916 583.103 989 L 578.58 989 L 535.131 989 L 530.995 989 z"/>
<path transform="translate(0,0)" fill="rgb(255,255,255)" d="M 544.83 968.117 L 568.918 968.047 C 571.526 974.1 575.319 983.631 578.58 989 L 535.131 989 C 538.91 982.742 541.956 974.935 544.83 968.117 z"/>
<path transform="translate(0,0)" fill="rgb(255,255,255)" d="M 556.602 940.696 C 559.29 942.874 567.361 959.64 564.661 963.712 L 560.25 963.916 L 546.58 963.907 C 549.763 956.103 553.104 948.364 556.602 940.696 z"/>
<path transform="translate(0,0)" fill="rgb(255,255,255)" d="M 684.918 938.956 C 684.894 946.561 684.396 982.77 685.527 989 L 642.403 989 C 643.68 977.385 642.991 951.906 642.982 939.474 C 649.973 947.906 656.921 956.374 663.825 964.878 C 670.552 956.562 677.987 946.98 684.918 938.956 z"/>
<path transform="translate(0,0)" fill="rgb(0,0,0)" d="M 25.263 930.397 C 30.6351 930.387 36.747 930.184 42.0341 930.75 C 54.4229 932.077 67.1778 944.959 55.0508 955.946 C 47.5246 962.765 39.4488 962.193 30.1662 962.057 C 30.068 970.46 30.2312 980.754 29.7474 989 L 25.7191 989 C 24.5001 972.399 24.9511 947.381 25.263 930.397 z"/>
<path transform="translate(0,0)" fill="rgb(255,255,255)" d="M 30.1347 934.921 C 44.4133 934.659 58.745 935.708 50.0392 954.508 C 43.3441 957.722 37.556 957.077 30.212 956.983 L 30.1347 934.921 z"/>
<path transform="translate(0,0)" fill="rgb(255,255,255)" d="M 1970.82 938.743 C 1981.74 951.774 2002.71 978.305 2013.64 989 L 1970.19 989 C 1970.77 972.254 1970.98 955.498 1970.82 938.743 z"/>
<path transform="translate(0,0)" fill="rgb(255,255,255)" d="M 1400.12 962.023 L 1437.17 961.995 C 1437.24 969.957 1436.99 981.31 1437.63 989 L 1399.77 989 C 1400.22 979.963 1400.14 971.062 1400.12 962.023 z"/>
<path transform="translate(0,0)" fill="rgb(0,0,0)" d="M 663.828 956.686 C 668.039 951.322 681.877 932.116 687.244 930.443 C 691.71 934.695 690.373 980.748 689.531 989 L 685.527 989 C 684.396 982.77 684.894 946.561 684.918 938.956 C 677.987 946.98 670.552 956.562 663.825 964.878 C 656.921 956.374 649.973 947.906 642.982 939.474 C 642.991 951.906 643.68 977.385 642.403 989 L 637.664 989 C 636.947 983.281 636.505 935.576 637.583 931.333 C 643.603 927.788 659.644 951.354 663.828 956.686 z"/>
<path transform="translate(0,0)" fill="rgb(0,0,0)" d="M 1965.91 989 C 1965.79 979.789 1964.27 937.484 1967.03 931.758 C 1969.56 931.119 1971 931.435 1972.9 933.504 C 1986.21 948.023 1999.31 964.414 2011.99 979.398 C 2012.01 969.222 2012 959.044 2011.99 948.868 C 2011.98 941.714 2010.29 936.526 2014.89 930.413 L 2015.69 930.078 C 2017.89 933.261 2017.1 981.347 2016.99 989 L 2013.64 989 C 2002.71 978.305 1981.74 951.774 1970.82 938.743 C 1970.98 955.498 1970.77 972.254 1970.19 989 L 1965.91 989 z"/>
<path transform="translate(0,0)" fill="rgb(0,0,0)" d="M 1394.66 989 C 1394.54 978.158 1393.4 939.139 1395.64 930.805 L 1397.3 930.239 C 1402.33 934.183 1400.1 949.937 1400.13 956.919 L 1437.13 956.996 C 1437.17 949.248 1436.95 938.774 1437.66 931.265 L 1439.01 930.448 C 1440.4 931.089 1442.14 931.608 1442.16 933.378 C 1442.38 949.383 1442.38 973.962 1441.95 989 L 1437.63 989 C 1436.99 981.31 1437.24 969.957 1437.17 961.995 L 1400.12 962.023 C 1400.14 971.062 1400.22 979.963 1399.77 989 L 1394.66 989 z"/>
<path transform="translate(0,0)" fill="rgb(0,0,0)" d="M 351.135 989 C 341.429 984.424 334.495 980.557 330.534 969.464 C 327.882 961.813 328.364 953.424 331.874 946.126 C 335.174 939.127 341.19 933.781 348.528 931.325 C 356.253 928.764 373.724 929.171 379.525 935.16 C 380.158 937.973 380.369 936.954 379.049 939.054 C 365.33 937.812 356.904 927.901 343.298 940.51 C 338.716 944.756 333.482 951.251 333.879 957.684 C 335.423 982.721 355.302 988.137 374.878 981.507 L 374.997 966.383 C 371.381 966.362 367.274 966.739 364.251 964.926 L 363.942 963.481 C 369.389 960.323 373.691 961.084 379.943 961.243 L 379.883 984.521 C 376.738 985.763 371.682 987.575 368.801 989 L 351.135 989 z"/>
<path transform="translate(0,0)" fill="rgb(0,0,0)" d="M 1306.12 989 C 1296.44 984.134 1289.1 979.875 1285.42 968.519 C 1282.95 960.859 1283.7 952.526 1287.5 945.432 C 1291.33 938.285 1297.9 933.004 1305.7 930.8 C 1314.13 928.336 1330.85 930.057 1336.5 937.328 C 1327.91 940.268 1303.79 924.231 1292.28 948.185 C 1289.28 954.514 1288.97 961.788 1291.43 968.346 C 1293.91 975.067 1298.05 979.614 1304.45 982.815 C 1314.85 988.016 1325.7 980.831 1334.43 981.605 C 1334.73 985.462 1327.81 987.683 1324.7 989 L 1306.12 989 z"/>
<path transform="translate(0,0)" fill="rgb(0,0,0)" d="M 1873.91 930.448 C 1881.45 930.424 1898.34 929.978 1904.79 931.411 L 1905.45 932.828 C 1901.3 936.401 1885.4 935.02 1878.88 934.962 L 1878.87 956.949 C 1886.17 956.864 1895 956.366 1901.92 958.191 L 1902.96 959.268 C 1897.66 962.022 1885.25 961.353 1878.87 961.278 L 1878.8 984.07 C 1885.24 984.027 1902.27 982.743 1906.61 985.94 L 1907.6 989 L 1873.91 989 C 1873.8 969.483 1873.8 949.965 1873.91 930.448 z"/>
<path transform="translate(0,0)" fill="rgb(0,0,0)" d="M 759.253 989 C 754.564 986.497 753.187 985.92 749.708 982 L 749.534 980.559 L 751.464 979.395 C 755.407 980.676 768.159 986.408 771.568 983.469 C 794.284 963.884 745.978 961.304 749.613 942.676 C 752.199 929.419 776.008 925.341 782.327 935.779 C 777.454 939.623 764.752 931.128 759.417 937.344 C 744.837 954.334 783.82 957.143 783.978 972.876 C 784.055 980.559 776.717 986.157 771.845 989 L 759.253 989 z"/>
<path transform="translate(0,0)" fill="rgb(0,0,0)" d="M 913.408 930.398 C 921.159 930.417 937.128 930.046 943.905 932.402 L 943.752 933.79 C 939.636 935.108 923.826 934.985 919.021 934.927 L 919.021 955.761 C 924.287 955.678 935.872 954.628 939.508 958.087 C 935.067 960.996 924.512 960.163 919.071 960.041 C 919.03 968.129 919.34 981.353 918.4 989 L 913.863 989 C 912.518 971.606 913.129 948.206 913.408 930.398 z"/>
<path transform="translate(0,0)" fill="rgb(0,0,0)" d="M 1575.42 989 C 1574.64 979.631 1574.59 940.399 1575.68 931.613 L 1577.22 930.292 C 1583.14 932.819 1580.82 976.007 1580.76 984.062 C 1587.13 984.007 1603.45 982.591 1607.57 985.953 L 1608.1 989 L 1575.42 989 z"/>
<path transform="translate(0,0)" fill="rgb(0,0,0)" d="M 1505.95 989 C 1505.88 981.149 1504.53 934.636 1507.25 930.891 L 1510.39 930.687 C 1512.19 933.104 1511.38 982.167 1511.3 989 L 1505.95 989 z"/>
<path transform="translate(0,0)" fill="url(#Gradient1)" d="M 1735.61 5.0002 C 1810.72 -6.59603 1873.59 25.7199 1904.71 95.7472 C 1910.88 109.047 1916 128.207 1916.08 142.923 C 1921.57 177.359 1907.38 219.318 1887.09 247.201 C 1863.38 279.829 1827.63 301.651 1787.77 307.832 C 1766.49 311.11 1740.46 310.025 1719.84 303.315 C 1665.98 285.794 1624.93 246.54 1612.88 189.922 C 1611.63 186.82 1610.11 176.273 1609.76 172.723 C 1605.6 129.768 1617.25 88.9828 1644.86 55.6567 C 1666.68 29.3177 1701.1 8.11335 1735.61 5.0002 z"/>
<path transform="translate(0,0)" fill="rgb(220,155,136)" d="M 1612.88 189.922 C 1611.63 186.82 1610.11 176.273 1609.76 172.723 C 1605.6 129.768 1617.25 88.9828 1644.86 55.6567 C 1666.68 29.3177 1701.1 8.11335 1735.61 5.0002 C 1691.79 22.7239 1656.84 40.6602 1635.48 85.3823 C 1630.98 94.8035 1622.61 133.717 1617.88 138.801 L 1617.46 138.198 C 1616.95 137.489 1616.54 136.957 1615.99 136.287 C 1613.46 143.023 1613.65 156.41 1611.94 163.86 C 1610.21 171.339 1616.45 186.272 1616.18 192.968 C 1619.02 200.826 1619.75 207.463 1623.86 215.354 C 1643.25 252.654 1679.17 277.214 1717.01 293.304 C 1748.38 306.639 1778.92 312.229 1811.7 299.774 C 1846.76 285.745 1880.27 257.092 1896.98 222.577 C 1899.08 218.239 1898.72 216.177 1898.36 211.426 C 1898.58 209.754 1903.5 199.062 1904.43 197.07 C 1912.58 179.731 1913.94 161.755 1916.08 142.923 C 1921.57 177.359 1907.38 219.318 1887.09 247.201 C 1863.38 279.829 1827.63 301.651 1787.77 307.832 C 1766.49 311.11 1740.46 310.025 1719.84 303.315 C 1665.98 285.794 1624.93 246.54 1612.88 189.922 z"/>
<path transform="translate(0,0)" fill="rgb(206,114,93)" d="M 1904.71 95.7472 C 1910.88 109.047 1916 128.207 1916.08 142.923 C 1913.94 161.755 1912.58 179.731 1904.43 197.07 C 1903.5 199.062 1898.58 209.754 1898.36 211.426 C 1895.75 214.799 1889.8 227 1886.53 227.3 C 1884.69 218.451 1903.15 187.53 1906.42 174.715 C 1914.52 142.954 1907.46 124.86 1904.71 95.7472 z"/>
<path transform="translate(0,0)" fill="rgb(220,155,136)" d="M 1779.64 24.4087 L 1780.07 24.3541 C 1802.3 21.6939 1824.67 28.0249 1842.21 41.9395 C 1851.04 48.8913 1875.31 78.1543 1865.66 88.4285 L 1864.42 87.291 C 1864.26 90.5741 1864.07 93.8558 1863.86 97.1359 C 1862.97 110.737 1859.94 116.57 1849.7 126.265 C 1842.51 133.076 1823.49 140.97 1813.86 140.308 C 1797.46 144.942 1771.34 139.728 1756.81 130.72 C 1743.98 122.78 1734.9 109.976 1731.67 95.2322 C 1726.95 74.6309 1735.73 54.8668 1751.52 41.8344 C 1753.87 39.898 1756.34 38.4654 1757.97 35.8491 C 1757.31 33.4176 1757.07 33.1138 1757.62 30.7475 C 1762.12 26.9623 1773.71 25.4331 1779.64 24.4087 z"/>
<path transform="translate(0,0)" fill="rgb(238,203,190)" d="M 1797.03 38.3489 C 1802.57 38.154 1807.11 38.0663 1812.61 39.0126 C 1823.36 40.8569 1832.92 46.9427 1839.14 55.903 C 1846.46 66.5185 1846.8 75.7168 1844.7 87.6549 C 1834.65 92.8873 1835.4 100.916 1817.8 105.293 C 1810.55 107.82 1798.43 106.311 1791.53 103.101 C 1770.75 93.4448 1768.5 70.8985 1777.49 51.8144 L 1777.15 51.8745 C 1782.64 43.0244 1786.6 41.0872 1797.03 38.3489 z"/>
<path transform="translate(0,0)" fill="rgb(0,0,0)" d="M 1302.09 594.121 C 1361.84 590.64 1413.09 636.274 1416.53 696.026 C 1419.97 755.777 1374.31 806.998 1314.55 810.404 C 1254.85 813.807 1203.69 768.189 1200.25 708.491 C 1196.81 648.792 1242.39 597.599 1302.09 594.121 z"/>
<path transform="translate(0,0)" fill="rgb(255,255,255)" d="M 1301.58 605.391 C 1304.21 604.993 1307.24 605.199 1309.91 605.333 C 1353.78 607.544 1382.3 643.951 1387.52 685.562 C 1392.67 726.609 1384.37 775.9 1341.39 793.278 C 1332.48 796.883 1325.62 797.837 1316.11 799.01 C 1232.95 798.101 1203.19 692.672 1246.68 631.503 C 1258.79 614.46 1281.3 607.417 1301.58 605.391 z"/>
<path transform="translate(0,0)" fill="rgb(0,0,0)" d="M 484.643 446.426 C 493.175 447.713 492.679 461.058 493.428 468.296 C 502.878 469.437 517.003 468.925 527.051 468.877 L 578.614 468.781 L 760.116 468.792 L 1367.44 468.743 C 1366.75 463.561 1365.53 460.5 1368.24 456.551 L 1369.95 457.1 C 1372.45 460.224 1372.28 464.65 1372.6 468.728 C 1430.67 469.454 1490.35 468.765 1548.52 468.761 L 1895.12 468.761 C 1908.72 468.762 2025.58 467.6 2030.75 469.371 C 2032.53 471.996 2031.73 475.973 2031.47 479.304 L 1604.5 479.353 L 516.244 479.366 L 188.607 479.336 L 92.5627 479.379 C 80.0779 479.397 67.5931 479.467 55.1087 479.49 C 51.7461 479.496 47.3053 479.953 45.2398 477.297 C 44.9976 474.449 44.2716 471.311 45.6903 469.105 C 53.7639 468.087 79.017 468.762 89.0604 468.761 L 180.689 468.767 L 488.716 468.762 C 487.226 461.571 485.389 453.661 484.643 446.426 z"/>
<path transform="translate(0,0)" fill="rgb(0,0,0)" d="M 1496.49 594.489 C 1504.21 598.089 1642.56 750.543 1658.69 767.988 C 1659.51 720.016 1655.35 669.354 1655.32 621.217 C 1655.3 598.137 1634.17 607.936 1630.02 600.849 C 1633.69 598.745 1690.6 599.588 1697.84 600.671 C 1688.28 604.143 1674.68 602.561 1673.45 615.013 C 1671.56 634.148 1672.37 654.683 1672.41 673.946 L 1672 765.157 C 1672.01 774.838 1672.7 800.398 1670.64 808.826 C 1650.8 799.665 1529.43 664.034 1507.89 639.612 C 1507.89 663.185 1508.45 780.638 1514.44 793.764 C 1518.08 801.751 1527.85 800.004 1535.07 802.659 C 1536.4 803.148 1536.3 803.267 1536.88 804.541 C 1531.65 806.909 1473.64 805.863 1466.38 804.56 C 1472.75 801.981 1479.99 801.872 1485.22 799.781 C 1498.42 794.502 1492.65 759.114 1493.96 748.509 C 1497.49 719.76 1487.83 614.609 1496.49 594.489 z"/>
<path transform="translate(0,0)" fill="rgb(0,0,0)" d="M 746.275 597.415 L 747.111 598.471 C 747.192 603.264 744.877 630.632 742.116 633.526 C 737.293 631.743 741.285 624.187 734.675 617.387 C 725.805 608.263 694.117 610.611 680.107 610.233 C 679.663 636.646 680.066 664.208 680.067 690.713 C 691.748 691.029 703.575 690.66 715.259 690.52 C 729.074 690.355 734.083 689.438 743.905 680.285 C 740.964 696.012 741.346 714.803 737.813 728.633 C 735.401 721.772 735.634 710.973 731.758 707.355 C 723.358 699.514 692.276 701.105 680.087 700.921 C 679.956 727.648 678.424 757.602 681.707 783.787 C 683.771 800.254 727.756 795.491 738.487 791.902 C 746.219 786.611 748.13 778.171 751.753 769.167 L 753.243 769.367 C 755.362 776.465 752.924 792.555 750.36 799.738 C 749.636 801.767 748.096 805.092 745.917 805.864 C 743.151 806.844 642.025 806.429 637.636 804.688 L 637.242 803.39 L 639.234 802.323 L 637.147 803.911 C 642.153 798.558 654.237 803.849 655.026 786.116 C 657.564 729.065 657.625 671.017 655.321 614.032 C 654.941 604.638 638.511 604.943 633.811 602.54 L 633.776 600.754 C 638.049 598.52 650.211 599.742 655.453 599.609 C 683.729 598.891 718.99 603.227 746.275 597.415 z"/>
<path transform="translate(0,0)" fill="rgb(0,0,0)" d="M 1866.82 597.338 L 1867.09 597.529 C 1868.55 600.792 1866.41 631.531 1862.05 633.767 C 1858.3 630.248 1860.9 621.556 1856.31 617.232 C 1847.16 608.621 1813.36 610.538 1800.92 610.375 C 1800.56 636.877 1800.89 664.111 1800.92 690.669 C 1814.56 691.199 1842.05 691.532 1854.78 687.743 C 1857.66 686.883 1862.05 682.815 1864.44 680.636 C 1862.64 692.279 1861.26 721.118 1858.01 729.482 C 1856.14 722.595 1856.82 711.387 1852.68 707.468 C 1844.03 699.291 1812.77 701.112 1800.92 700.996 C 1800.81 724.571 1799.07 762.441 1802.88 785.527 C 1805.1 798.974 1847.65 795.857 1859.43 791.729 C 1871.91 783.287 1868.18 772.419 1872.45 768.932 L 1874.11 769.416 C 1875.6 772.401 1874.36 781.584 1873.84 785.105 C 1872.99 790.765 1872.42 805.665 1865.03 806.129 C 1831.48 808.237 1797.86 804.033 1764.28 806.139 C 1762.19 806.269 1759.85 805.839 1758.17 804.582 C 1760.5 798.326 1766.93 801.708 1772.23 797.588 C 1782.52 783.594 1775.75 645.552 1776.88 620.187 C 1777.71 601.694 1758.31 605.539 1754.08 601.821 L 1754.53 600.065 C 1781.73 597.96 1843.04 603.421 1866.82 597.338 z"/>
<path transform="translate(0,0)" fill="rgb(0,0,0)" d="M 988.006 594.576 C 1002.01 602.258 1050.33 600.149 1068.79 600.177 C 1095.76 600.219 1127.21 601.518 1153.47 597.003 C 1153.52 604.613 1153.2 627.559 1151.5 633.894 L 1149.86 634.318 C 1148.39 630.089 1145.35 620.842 1142.27 618.314 C 1132.18 610.025 1093.25 611.82 1080.09 611.536 C 1079.66 664.634 1078.71 729.636 1081.24 782.248 C 1084.48 810.231 1096.33 794.74 1107.38 803.832 C 1104.66 806.707 1042.86 806.392 1037.59 804.685 C 1038.64 801.843 1049.28 799.737 1052.44 796.373 C 1059.67 788.702 1056.77 634.344 1056.74 611.566 C 1039.56 611.981 1022.14 611.44 1005.02 612.869 C 991.598 613.988 990.044 621.012 981.806 631.907 L 980.782 631.408 C 979.212 624.667 985.506 601.589 988.006 594.576 z"/>
<path transform="translate(0,0)" fill="rgb(0,0,0)" d="M 882.521 595.369 C 891.88 593.938 914.427 598.502 924.079 600.299 C 923.915 612.499 923.542 630.088 921.552 641.848 C 917.738 633.642 917.327 620.948 910.482 614.771 C 897.372 602.941 869.396 602.012 856.922 614.967 C 833.019 639.793 858.771 664.735 878.693 680.202 C 887.747 687.214 896.092 694.664 904.69 702.171 C 931.672 725.729 938.124 765.556 912.219 792.595 C 898.146 807.285 877.832 809.714 858.274 809.773 C 855.841 809.6 853.413 809.352 850.996 809.027 C 843.469 807.997 830.782 806.915 825.7 800.459 C 821.234 794.785 822.284 761.352 827.023 758.085 L 828.492 759.151 C 829.011 762.352 828.885 764.67 829.243 767.752 C 834.695 814.704 913.405 805.942 908.735 760.392 C 904.033 714.523 832.253 700.053 829.433 650.173 C 827.394 614.09 850.454 598.271 882.521 595.369 z"/>
<path transform="translate(0,0)" fill="rgb(0,0,0)" d="M 461.224 599.457 C 463.105 599.374 472.417 599.395 473.707 599.618 C 481.356 600.944 526.194 597.638 529.529 601.507 C 526.702 604.217 521.402 603.933 517.612 604.841 C 514.82 605.51 512.143 607.131 510.697 609.671 C 505.012 619.656 506.372 766.9 511.625 784.431 C 512.65 787.852 513.531 789.92 516.839 791.595 C 525.532 795.997 558.911 797.109 568.307 793.744 C 579.448 789.755 583.554 778.818 588.338 769.006 L 589.652 768.598 C 590.998 771.9 590.289 775.643 589.941 779.249 C 589.443 787.481 588.594 805.871 578.07 806.3 C 551.039 807.401 523.854 805.903 496.806 805.261 C 489.584 805.089 469.915 807.898 465.049 804.004 C 467.062 801.127 477.749 800.789 480.141 796.181 C 482.477 791.678 483.677 780.944 483.807 775.957 C 484.679 742.417 484.087 709.373 484.287 675.734 C 484.399 656.932 484.802 634.213 483.503 615.468 C 482.732 604.353 464.796 604.51 461.399 602.255 L 461.224 599.457 z"/>
<path transform="translate(0,0)" fill="rgb(0,0,0)" d="M 323.534 599.255 C 342.166 599.947 374.574 598.568 390.626 600.288 C 385.913 602.593 381.228 602.956 376.379 604.595 C 373.446 605.587 370.162 607.115 368.811 610.06 C 366.679 614.707 366.48 621.396 366.224 626.492 C 365.198 646.953 364.217 780.55 368.916 792.66 C 373.176 803.637 383.683 799.122 391.946 802.713 L 392.015 804.329 L 389.793 805.906 C 379.791 806.1 368.677 805.683 358.563 805.576 C 348.661 805.471 332.9 806.624 323.926 805.136 L 323.347 803.649 C 326.922 800.236 333.142 801.751 336.647 798.523 C 343.171 792.513 341.994 769.959 342.305 761.26 C 343.085 739.434 345.934 621.093 338.553 608.42 C 335.466 603.12 326.46 605.795 322.46 601.502 L 323.534 599.255 z"/>
<path transform="translate(0,0)" fill="rgb(0,0,0)" d="M 1442.71 386.742 C 1443.86 387.705 1444.15 388.659 1444.78 390.01 C 1443.43 394.474 1434.36 402.239 1430.66 405.709 L 1428.53 403.261 C 1429.08 397.295 1437.84 391.029 1442.71 386.742 z"/>
<path transform="translate(0,0)" fill="rgb(0,0,0)" d="M 613.21 191.503 C 615.704 193.046 615.21 192.293 616.508 194.622 C 615.888 199.474 609.729 208.093 606.9 212.471 C 604.1 211.724 604.811 212.354 603.403 210.372 C 603.997 205.314 610.269 196.283 613.21 191.503 z"/>
<path transform="translate(0,0)" fill="rgb(0,0,0)" d="M 961.193 104.714 C 964.119 106.086 970.403 115.883 972.105 119.049 C 974.058 122.683 973.93 122.519 972.945 125.823 C 967.554 124.63 962.062 114.255 959.819 109.435 C 958.987 107.647 960.31 106.283 961.193 104.714 z"/>
<path transform="translate(0,0)" fill="rgb(0,0,0)" d="M 389.225 250.691 C 396.211 251.802 405.679 262.478 405.676 269.508 C 400.311 269.154 388.841 255.769 389.225 250.691 z"/>
<path transform="translate(0,0)" fill="rgb(0,0,0)" d="M 364.461 224.481 C 368.005 225.942 376.538 233.374 378.891 236.631 C 381.218 239.851 380.734 239.943 380.199 243.328 C 376.295 241.439 365.568 232.802 363.604 228.609 C 362.904 227.114 363.687 226.398 364.461 224.481 z"/>
<path transform="translate(0,0)" fill="rgb(0,0,0)" d="M 414.486 278.376 C 418.539 280.316 426.313 292.025 427.515 296.386 L 425.886 298.902 L 423.615 298.045 C 419.896 293.641 416.101 289.09 413.746 283.714 C 412.595 281.084 413.131 281.319 414.486 278.376 z"/>
<path transform="translate(0,0)" fill="rgb(0,0,0)" d="M 1416.72 413.585 L 1418.98 414.604 L 1419.63 416.446 C 1417.89 421.169 1410.46 428.701 1406.76 432.856 C 1404.83 431.772 1404.77 431.738 1403.7 429.858 C 1404.56 425.329 1413.27 417.142 1416.72 413.585 z"/>
<path transform="translate(0,0)" fill="rgb(0,0,0)" d="M 911.281 50.439 C 916.091 50.7218 923.102 58.0891 926.113 61.5738 C 928.598 64.4495 928.505 64.7572 928.315 68.3508 C 925.841 68.3199 923.965 66.9481 922.286 65.2303 C 917.561 60.3941 911.075 57.5262 911.281 50.439 z"/>
<path transform="translate(0,0)" fill="rgb(0,0,0)" d="M 1238.57 213.806 L 1240.6 215.36 L 1240.81 217.326 C 1238.71 220.218 1229.51 227.805 1225.9 231.223 C 1224.51 230.034 1224.31 229.482 1223.42 227.931 C 1224.38 222.604 1234.09 216.95 1238.57 213.806 z"/>
<path transform="translate(0,0)" fill="rgb(0,0,0)" d="M 1554.5 293.847 L 1556.92 294.341 L 1557.77 296.019 C 1556.2 299.843 1545.35 306.468 1541.46 309.083 C 1540.21 308.593 1539.6 307.631 1538.71 306.589 C 1539.98 301.872 1549.79 296.807 1554.5 293.847 z"/>
<path transform="translate(0,0)" fill="rgb(0,0,0)" d="M 729.437 50.745 C 730.942 51.1923 731.05 51.4915 732.327 52.4727 L 732.179 54.3578 C 728.973 58.4613 721.835 63.623 717.499 67.0111 L 715.284 66.6014 L 714.293 64.9798 C 715.771 60.1785 725.253 53.863 729.437 50.745 z"/>
<path transform="translate(0,0)" fill="rgb(0,0,0)" d="M 1067.62 337.481 C 1074.59 338.048 1078.02 353.995 1077.77 359.621 C 1070.61 358.732 1067.11 343.3 1067.62 337.481 z"/>
<path transform="translate(0,0)" fill="rgb(0,0,0)" d="M 702.529 74.5601 L 704.653 76.648 C 704.098 81.7099 694.75 89.9005 690.66 94.041 L 688.694 91.2232 C 689.291 85.0567 697.769 78.811 702.529 74.5601 z"/>
<path transform="translate(0,0)" fill="rgb(0,0,0)" d="M 937.238 76.3184 C 942.873 76.9466 952.331 89.6056 952.607 95.5422 C 946.243 94.9959 936.89 83.0109 937.238 76.3184 z"/>
<path transform="translate(0,0)" fill="rgb(0,0,0)" d="M 1525.22 314.794 C 1526.35 315.203 1526.87 315.852 1527.83 316.669 L 1527.54 318.64 C 1523.78 322.964 1516.62 327.586 1511.74 331.018 C 1510.24 330.521 1510.49 330.359 1509.29 328.947 C 1510.26 324.1 1520.93 317.766 1525.22 314.794 z"/>
<path transform="translate(0,0)" fill="rgb(0,0,0)" d="M 1211.17 239.693 L 1213.91 240.636 L 1214.66 242.462 C 1213.22 246.83 1206.4 255.186 1203.3 259.407 C 1200.34 257.266 1200.86 258.284 1200.29 255.569 C 1202.28 250.189 1207.48 244.356 1211.17 239.693 z"/>
<path transform="translate(0,0)" fill="rgb(0,0,0)" d="M 1392.4 441.556 C 1393.57 441.93 1394.42 442.738 1395.4 443.507 C 1395.83 448.453 1386.55 457.505 1383.06 461.439 C 1380.85 460.28 1381.59 460.976 1380.46 458.526 C 1381.47 454.327 1389.33 445.348 1392.4 441.556 z"/>
<path transform="translate(0,0)" fill="rgb(0,0,0)" d="M 981.047 135.646 C 985.648 137.764 993.342 151.758 991.754 157.413 C 986.932 156.086 981.97 145.498 980.098 141.1 C 978.948 138.399 979.772 138.059 981.047 135.646 z"/>
<path transform="translate(0,0)" fill="rgb(0,0,0)" d="M 1495.58 337.821 C 1497.03 338.002 1497.45 338.523 1498.59 339.424 L 1498.41 341.556 C 1495.61 345.453 1488.34 350.999 1484.31 354.297 C 1483.27 354.007 1482.45 353.372 1481.49 352.785 L 1481.39 350.768 C 1484.35 346.443 1491.27 341.323 1495.58 337.821 z"/>
<path transform="translate(0,0)" fill="rgb(0,0,0)" d="M 1287.18 214.681 C 1294.16 215 1304.94 225.74 1304.55 232.324 L 1301.1 231.716 C 1296.56 227.648 1287.87 220.349 1287.18 214.681 z"/>
<path transform="translate(0,0)" fill="rgb(0,0,0)" d="M 1585.74 273.881 C 1587.05 274.039 1587.57 274.751 1588.55 275.663 L 1588.33 277.572 C 1584.83 281.088 1576.88 285.466 1572.32 288.184 C 1570.22 287.766 1570.94 287.993 1569.19 286.319 C 1570.6 281.451 1580.95 276.645 1585.74 273.881 z"/>
<path transform="translate(0,0)" fill="rgb(0,0,0)" d="M 502.159 424.41 C 504.369 424.828 504.55 424.77 505.992 426.36 C 506.088 431.109 501.579 440.832 499.628 445.633 C 499.104 445.683 497.094 445.456 496.442 445.398 L 495.527 443.539 C 496.166 437.951 499.909 429.872 502.159 424.41 z"/>
<path transform="translate(0,0)" fill="rgb(0,0,0)" d="M 544.726 322.243 L 547.723 323.436 C 549.294 329.123 543.718 337.872 540.86 343.614 C 538.186 343.458 539.162 343.892 537.221 341.931 C 537.038 337.616 542.664 326.699 544.726 322.243 z"/>
<path transform="translate(0,0)" fill="rgb(0,0,0)" d="M 334.334 202.734 C 337.702 203.466 345.928 208.585 348.58 210.922 C 352.552 214.423 352.736 213.891 353.27 218.397 C 347.791 218.274 339.606 211.875 335.725 208.175 C 333.602 206.152 334.164 205.411 334.334 202.734 z"/>
<path transform="translate(0,0)" fill="rgb(0,0,0)" d="M 1142.41 368.363 C 1145.23 369.856 1144.42 368.976 1145.75 371.553 C 1145.1 377.204 1141.18 385.347 1138.92 391.229 C 1136.1 389.862 1136.85 390.649 1135.35 388.367 C 1135.48 382.53 1139.93 373.94 1142.41 368.363 z"/>
<path transform="translate(0,0)" fill="rgb(0,0,0)" d="M 433.632 309.488 C 435.113 309.871 435.71 310.278 437.069 310.957 C 440.46 315.654 446.322 324.847 446.117 330.671 C 439.223 328.982 432.476 316.095 433.632 309.488 z"/>
<path transform="translate(0,0)" fill="rgb(0,0,0)" d="M 759.449 30.74 L 761.967 31.2632 L 763.032 33.0232 C 761.534 36.2635 750.169 42.4485 746.483 44.6527 L 743.744 43.9678 L 743.297 42.6913 C 744.711 38.1228 755.048 33.1938 759.449 30.74 z"/>
<path transform="translate(0,0)" fill="rgb(0,0,0)" d="M 998.486 167.473 C 1003.94 170.579 1010.53 183.914 1008.89 190.151 C 1004.41 188.452 1000.68 179.257 998.614 175.059 C 997.009 171.793 997.318 170.677 998.486 167.473 z"/>
<path transform="translate(0,0)" fill="rgb(0,0,0)" d="M 1190.91 269.441 L 1193.41 271.043 C 1194.26 276.488 1187.36 285.465 1184.07 290.666 C 1182.6 290.095 1182.49 289.851 1181.24 288.898 C 1180.43 283.983 1187.9 274.051 1190.91 269.441 z"/>
<path transform="translate(0,0)" fill="rgb(0,0,0)" d="M 654.389 130.631 C 656.055 131.597 655.976 131.646 657.156 133.227 C 656.362 138.231 648.825 147.007 645.482 151.327 L 643.019 148.956 C 642.73 143.349 650.487 135.404 654.389 130.631 z"/>
<path transform="translate(0,0)" fill="rgb(0,0,0)" d="M 302.261 184.633 C 306.654 185.274 316.385 190.077 319.968 192.855 C 322.819 195.067 322.328 195.077 322.66 198.167 C 317.973 198.341 307.385 192.878 303.805 189.674 C 301.758 187.843 302.318 187.545 302.261 184.633 z"/>
<path transform="translate(0,0)" fill="rgb(0,0,0)" d="M 1173.19 301.405 L 1175.68 303.248 C 1176.75 307.749 1169.66 319.394 1167.19 324.003 C 1164.67 322.165 1165.38 323.121 1164.23 320.454 C 1165.66 313.374 1169.55 307.661 1173.19 301.405 z"/>
<path transform="translate(0,0)" fill="rgb(0,0,0)" d="M 1468.14 361.545 L 1470.96 363.205 L 1471.1 365.321 C 1468.38 369.772 1461.73 375.037 1457.57 378.672 C 1456.16 378.657 1455.84 378.287 1454.49 377.64 L 1454.3 375.734 C 1456.99 371.569 1464.22 365.223 1468.14 361.545 z"/>
<path transform="translate(0,0)" fill="rgb(0,0,0)" d="M 1325.16 276.466 C 1327.5 276.62 1327.89 276.469 1329.57 277.904 C 1332.2 282.736 1336.89 293.295 1335.36 298.643 C 1333.25 298.276 1333.19 298.154 1331.47 296.778 C 1328.74 291.361 1325.49 282.526 1325.16 276.466 z"/>
<path transform="translate(0,0)" fill="rgb(0,0,0)" d="M 449.058 342.397 C 457.258 342.979 460.435 355.832 462.333 362.896 L 459.424 363.203 C 454.478 360.598 450.945 348.166 449.058 342.397 z"/>
<path transform="translate(0,0)" fill="rgb(0,0,0)" d="M 1156.4 335.199 C 1158.59 335.603 1158.71 335.575 1160.17 337.143 C 1160.4 342.147 1154.91 351.958 1152.55 356.762 C 1149.53 355.504 1150.34 356.307 1148.93 353.936 C 1149.77 348.361 1153.91 340.733 1156.4 335.199 z"/>
<path transform="translate(0,0)" fill="rgb(0,0,0)" d="M 1311.82 242.542 C 1316.85 245.078 1323.06 258.437 1321.74 264.516 L 1318.62 263.004 C 1315.28 257.695 1308.54 248.26 1311.82 242.542 z"/>
<path transform="translate(0,0)" fill="rgb(0,0,0)" d="M 1029.17 234.582 C 1035.51 235.914 1040.82 250.774 1038.7 256.532 C 1037.82 256.147 1036.59 255.343 1035.73 254.82 C 1032.87 249.477 1027.76 240.322 1029.17 234.582 z"/>
<path transform="translate(0,0)" fill="rgb(0,0,0)" d="M 476.393 410.571 C 482.916 411.638 486.085 429.545 483.71 433.718 C 478.765 431.516 474.428 414.651 476.393 410.571 z"/>
<path transform="translate(0,0)" fill="rgb(0,0,0)" d="M 1100.47 442.267 C 1106.89 443.69 1110.15 459.993 1109.08 465.227 C 1102.33 463.858 1099.53 447.904 1100.47 442.267 z"/>
<path transform="translate(0,0)" fill="rgb(0,0,0)" d="M 677.635 101.66 C 679.161 102.64 679.168 102.861 680.164 104.322 C 679.181 108.825 670.917 117.515 667.585 121.363 C 660.043 116.908 673.586 105.92 677.635 101.66 z"/>
<path transform="translate(0,0)" fill="rgb(0,0,0)" d="M 516.247 389.683 C 517.537 390.431 519 390.884 519.205 392.029 C 520.01 396.529 514.044 407.749 512.047 412.007 C 509.065 410.633 509.866 411.496 508.648 408.942 C 509.832 401.88 513.065 396.063 516.247 389.683 z"/>
<path transform="translate(0,0)" fill="rgb(0,0,0)" d="M 1128.86 403.267 L 1131.88 404.401 C 1133.52 409.574 1128.34 419.743 1126.04 425.303 C 1125.15 424.929 1123.15 424.313 1122.9 423.688 C 1121.23 419.516 1126.99 407.786 1128.86 403.267 z"/>
<path transform="translate(0,0)" fill="rgb(0,0,0)" d="M 632.737 160.645 C 634.829 161.666 635.066 161.655 636.08 163.626 C 634.972 169.103 629.269 176.086 625.881 180.921 L 623.501 180.408 L 622.465 178.526 C 623.232 174.294 630.028 164.805 632.737 160.645 z"/>
<path transform="translate(0,0)" fill="rgb(0,0,0)" d="M 465.646 375.387 C 470.27 378.674 475.797 392.526 473.827 397.921 C 467.452 396.499 463.082 381.099 465.646 375.387 z"/>
<path transform="translate(0,0)" fill="rgb(0,0,0)" d="M 577.253 255.644 C 580.357 257.812 581.451 258.425 579.749 262.48 C 577.672 267.428 574.419 272.883 571.799 277.547 L 569.18 276.577 L 568.404 274.538 C 569.711 269.284 574.547 261.056 577.253 255.644 z"/>
<path transform="translate(0,0)" fill="rgb(0,0,0)" d="M 560.511 289.233 L 563.694 290.492 C 565.173 295.165 558.257 305.866 555.782 310.417 L 553.018 309.41 C 551.751 303.954 557.648 294.76 560.511 289.233 z"/>
<path transform="translate(0,0)" fill="rgb(0,0,0)" d="M 1042.6 268.488 C 1044.76 268.741 1044.84 268.875 1046.67 270.17 C 1049.53 275.217 1053.84 284.631 1053.39 290.43 C 1046.59 289.478 1042.09 274.095 1042.6 268.488 z"/>
<path transform="translate(0,0)" fill="rgb(0,0,0)" d="M 594.86 223.475 L 597.358 225.149 C 598.394 230.849 592.131 239.208 588.951 244.499 C 587.578 244.231 587.079 243.951 585.799 243.437 C 584.623 238.949 592.279 227.802 594.86 223.475 z"/>
<path transform="translate(0,0)" fill="rgb(0,0,0)" d="M 881.225 29.6332 C 887.661 29.5562 900.174 37.106 900.838 44.4205 C 897.29 44.234 888.581 38.583 885.6 36.3816 C 881.515 33.3654 881.79 33.7574 881.225 29.6332 z"/>
<path transform="translate(0,0)" fill="rgb(0,0,0)" d="M 529.97 355.74 L 532.934 357.223 C 534.424 362.842 528.819 371.992 526.11 377.53 C 523.154 376.753 523.769 377.405 522.584 375.397 C 523.004 369.946 527.565 361.128 529.97 355.74 z"/>
<path transform="translate(0,0)" fill="rgb(0,0,0)" d="M 1079.05 372.341 C 1080.67 372.688 1082.67 372.789 1083.49 374.303 C 1086.19 379.251 1089.2 389.271 1088.53 394.721 C 1081.93 393.167 1078.72 378.187 1079.05 372.341 z"/>
<path transform="translate(0,0)" fill="rgb(0,0,0)" d="M 1057 302.652 C 1062.14 305.723 1067.15 320.164 1064.86 325.518 C 1059.69 322.003 1053.73 308.212 1057 302.652 z"/>
<path transform="translate(0,0)" fill="rgb(0,0,0)" d="M 847.168 15.8212 C 852.15 16.3732 863.928 18.8722 867.722 22.1707 C 869.096 23.3649 868.688 24.1698 868.882 26.4049 C 864.977 26.3559 851.25 22.4423 848.034 19.7881 C 847.409 19.2724 847.314 16.9003 847.168 15.8212 z"/>
<path transform="translate(0,0)" fill="rgb(0,0,0)" d="M 1013.28 201.797 C 1015.65 201.745 1015.89 201.617 1017.8 202.823 C 1020.97 207.451 1026.02 216.867 1025.46 222.507 C 1023.3 222.338 1023.41 222.33 1021.54 221.175 C 1017.94 215.84 1014.42 208.125 1013.28 201.797 z"/>
<path transform="translate(0,0)" fill="rgb(0,0,0)" d="M 1336.6 311.272 L 1339.56 311.654 C 1343.9 315.153 1345.54 327.636 1346.51 333.55 C 1344.13 333.457 1344 333.515 1342.11 332.207 C 1338.63 324.943 1337.7 319.225 1336.6 311.272 z"/>
<path transform="translate(0,0)" fill="rgb(0,0,0)" d="M 268.259 170.723 C 272.802 171.327 283.628 174.638 287.347 177.397 C 289.418 178.933 288.928 179.55 289.333 182.407 C 284.436 181.795 272.061 177.696 268.395 174.347 L 268.259 170.723 z"/>
<path transform="translate(0,0)" fill="rgb(0,0,0)" d="M 1346.69 346.501 C 1348.86 346.943 1349.07 347.118 1350.58 348.752 C 1352.56 353.866 1355.3 364.01 1354.27 369.406 C 1352.04 369.148 1351.86 369.22 1350.32 367.735 C 1348.2 362.365 1345.51 352.133 1346.69 346.501 z"/>
<path transform="translate(0,0)" fill="rgb(0,0,0)" d="M 1116.2 438.19 L 1119.47 439.144 C 1121.44 444.409 1116.42 454.117 1114.09 459.835 C 1111.7 459.779 1112.63 460.126 1110.71 458.339 C 1110.09 453.921 1114.54 442.905 1116.2 438.19 z"/>
<path transform="translate(0,0)" fill="rgb(0,0,0)" d="M 1361.69 418.408 C 1367.7 419.804 1369.04 437.929 1366.65 441.987 C 1361.35 438.984 1359.53 423.387 1361.69 418.408 z"/>
<path transform="translate(0,0)" fill="rgb(0,0,0)" d="M 1090.27 407.265 C 1092.45 407.677 1092.51 407.737 1094.22 409.218 C 1096.79 414.763 1099.71 423.943 1099.02 430.064 C 1092.36 428.363 1089.59 413.152 1090.27 407.265 z"/>
<path transform="translate(0,0)" fill="rgb(0,0,0)" d="M 232.096 162.144 C 238.514 161.191 252.26 163.289 255.566 169.454 C 250.612 171.061 241.161 168.397 236.27 166.753 C 233.033 165.664 233.369 165.031 232.096 162.144 z"/>
<path transform="translate(0,0)" fill="rgb(0,0,0)" d="M 1354.43 382.25 C 1356.52 382.751 1356.57 382.867 1358.19 384.374 C 1360.05 389.648 1362.78 399.974 1361.06 405.35 C 1358.94 404.934 1358.89 404.89 1357.38 403.257 C 1355.26 397.147 1353.65 388.696 1354.43 382.25 z"/>
<path transform="translate(0,0)" fill="rgb(0,0,0)" d="M 1256.89 205.125 C 1262.81 204.901 1270.23 204.263 1275.32 207.576 L 1275.29 209.858 C 1274.1 210.468 1274.12 210.387 1272.77 210.438 C 1267.11 209.479 1258.19 211.725 1253.82 209.127 C 1254.22 206.467 1254.28 207.134 1256.89 205.125 z"/>
<path transform="translate(0,0)" fill="rgb(0,0,0)" d="M 794.4 17.1843 C 795.979 17.4902 795.479 17.3857 796.784 18.9044 L 795.967 20.7773 C 791.236 23.544 784.549 25.3629 779.229 27.0692 C 777.748 27.2124 777.216 26.8456 775.858 26.2741 L 775.772 24.6077 C 779.054 20.6755 789.365 18.4201 794.4 17.1843 z"/>
<path transform="translate(0,0)" fill="rgb(0,0,0)" d="M 813.823 13.2782 C 819.179 13.1142 828.049 12.6121 832.748 14.6871 L 833.194 16.9906 C 832.169 17.729 831.479 17.7937 830.25 18.1179 C 825.304 18.3014 814.261 19.5235 810.948 16.576 L 811.24 14.9754 L 813.823 13.2782 z"/>
<path transform="translate(0,0)" fill="rgb(0,0,0)" d="M 196.151 157.348 C 204.082 157.323 215.008 155.592 219.417 162.716 C 214.397 163.341 202.13 163.415 197.582 161.118 C 196.934 160.791 196.436 158.321 196.151 157.348 z"/>
</svg>